<svg width="65" height="65" viewBox="0 0 65 65" fill="none" xmlns="http://www.w3.org/2000/svg">
<rect width="65" height="65" rx="32.5" fill="#FF5449"/>
<g clip-path="url(#clip0_118_63)">
<g opacity="0.75">
<path d="M47.4286 28.2063L40.9648 34.6701L35.5916 29.295L29.5933 35.2933L33 38.7H23.5V29.2L26.9067 32.6067L35.5916 23.9218L40.9648 29.295L45.6673 24.5944C43.5328 21.3818 40.2568 19.1007 36.5032 18.2135C32.7495 17.3264 28.799 17.8994 25.452 19.8165C22.1051 21.7335 19.6122 24.8514 18.4784 28.538C17.3447 32.2247 17.6548 36.2045 19.3461 39.671C21.0374 43.1375 23.9833 45.8314 27.5868 47.2068C31.1903 48.5822 35.182 48.5362 38.7528 47.0781C42.3237 45.6201 45.2067 42.859 46.8177 39.3545C48.4286 35.8499 48.647 31.864 47.4286 28.2044V28.2063ZM50.3508 25.2461L50.3698 25.2651L50.3622 25.2727C51.4453 27.7047 52.0034 30.3377 52 33C52 43.4937 43.4937 52 33 52C22.5063 52 14 43.4937 14 33C14 22.5063 22.5063 14 33 14C40.733 14 47.383 18.617 50.3508 25.2461Z" fill="url(#paint0_linear_118_63)"/>
</g>
</g>
<defs>
<linearGradient id="paint0_linear_118_63" x1="33" y1="14.5" x2="33" y2="53" gradientUnits="userSpaceOnUse">
<stop stop-color="white"/>
<stop offset="1" stop-color="white" stop-opacity="0"/>
</linearGradient>
<clipPath id="clip0_118_63">
<rect width="38" height="38" fill="white" transform="translate(14 14)"/>
</clipPath>
</defs>
</svg>
