<svg width="256" height="256" viewBox="0 0 256 256" fill="none" xmlns="http://www.w3.org/2000/svg">
<path d="M232 56V176C231.994 177.139 231.744 178.263 231.268 179.298C230.792 180.333 230.101 181.254 229.24 182C213.96 195.23 199.35 200 185.42 200C166.51 200 148.85 191.26 132.42 183.15C105.87 170 82.79 158.61 56 179.77V224C56 226.122 55.1571 228.157 53.6569 229.657C52.1566 231.157 50.1217 232 48 232C45.8783 232 43.8434 231.157 42.3431 229.657C40.8429 228.157 40 226.122 40 224V56C40.0077 54.8603 40.2588 53.7354 40.7365 52.7006C41.2142 51.6658 41.9075 50.7451 42.77 50C78.77 18.82 111.08 34.79 139.56 48.88C167 62.46 190.79 74.2 218.76 50C219.916 48.9979 221.335 48.3482 222.849 48.1281C224.363 47.908 225.909 48.1267 227.302 48.7582C228.696 49.3897 229.879 50.4076 230.712 51.6911C231.544 52.9747 231.991 54.4701 232 56Z" fill="white"/>
</svg>
