<svg width="256" height="256" viewBox="0 0 256 256" fill="none" xmlns="http://www.w3.org/2000/svg">
<path d="M42.76 50C41.8994 50.746 41.2079 51.6672 40.7319 52.7019C40.256 53.7366 40.0064 54.8611 40 56V224C40 226.122 40.8429 228.157 42.3431 229.657C43.8434 231.157 45.8783 232 48 232C50.1217 232 52.1566 231.157 53.6569 229.657C55.1571 228.157 56 226.122 56 224V179.77C82.79 158.61 105.87 170.02 132.45 183.18C148.85 191.29 166.51 200.03 185.45 200.03C199.38 200.03 213.99 195.28 229.27 182.03C230.131 181.284 230.822 180.363 231.298 179.328C231.774 178.293 232.024 177.169 232.03 176.03V56C232.026 54.4645 231.581 52.9624 230.747 51.6732C229.913 50.3839 228.725 49.362 227.326 48.7294C225.927 48.0968 224.375 47.8802 222.856 48.1055C221.337 48.3308 219.915 48.9885 218.76 50C190.76 74.23 167.04 62.49 139.55 48.88C111.07 34.76 78.78 18.79 42.76 50ZM216 172.25C189.21 193.41 166.13 181.99 139.55 168.84C114.55 156.49 86.74 142.71 56 160.44V59.79C82.79 38.63 105.87 50.04 132.45 63.19C157.45 75.54 185.27 89.32 216 71.59V172.25Z" fill="white"/>
</svg>
