<svg width="65" height="65" viewBox="0 0 65 65" fill="none" xmlns="http://www.w3.org/2000/svg">
<rect width="65" height="65" rx="32.5" fill="#2ECC71"/>
<g clip-path="url(#clip0_118_64)">
<path d="M17.5714 37.7937L24.0352 31.3299L29.4084 36.705L35.4067 30.7067L32 27.3H41.5V36.8L38.0933 33.3933L29.4084 42.0782L24.0352 36.705L19.3327 41.4056C21.4672 44.6182 24.7432 46.8992 28.4968 47.7864C32.2505 48.6736 36.201 48.1006 39.5479 46.1835C42.8949 44.2664 45.3878 41.1487 46.5215 37.462C47.6553 33.7753 47.3451 29.7955 45.6539 26.329C43.9626 22.8625 41.0167 20.1686 37.4132 18.7932C33.8097 17.4178 29.818 17.4638 26.2472 18.9219C22.6763 20.3799 19.7933 23.141 18.1823 26.6456C16.5714 30.1501 16.353 34.136 17.5714 37.7956V37.7937ZM14.6492 40.7539L14.6302 40.7349L14.6378 40.7273C13.5547 38.2953 12.9966 35.6623 13 33C13 22.5063 21.5063 14 32 14C42.4937 14 51 22.5063 51 33C51 43.4937 42.4937 52 32 52C24.267 52 17.617 47.383 14.6492 40.7539Z" fill="url(#paint0_linear_118_64)" fill-opacity="0.75"/>
</g>
<defs>
<linearGradient id="paint0_linear_118_64" x1="32" y1="14" x2="32" y2="52" gradientUnits="userSpaceOnUse">
<stop stop-color="white"/>
<stop offset="1" stop-color="white" stop-opacity="0"/>
</linearGradient>
<clipPath id="clip0_118_64">
<rect width="38" height="38" fill="white" transform="translate(13 14)"/>
</clipPath>
</defs>
</svg>
